<mxfile host="65bd71144e">
    <diagram id="PWRS0DaU7JnXPn73NEsV" name="第 1 页">
        <mxGraphModel dx="459" dy="749" grid="1" gridSize="10" guides="1" tooltips="1" connect="1" arrows="1" fold="1" page="1" pageScale="1" pageWidth="827" pageHeight="1169" math="0" shadow="0">
            <root>
                <mxCell id="0"/>
                <mxCell id="1" parent="0"/>
                <mxCell id="2" value="开始" style="ellipse;whiteSpace=wrap;html=1;aspect=fixed;sketch=1;fillColor=#d5e8d4;strokeColor=#82b366;" vertex="1" parent="1">
                    <mxGeometry x="235" y="30" width="40" height="40" as="geometry"/>
                </mxCell>
                <mxCell id="3" value="结束" style="ellipse;whiteSpace=wrap;html=1;aspect=fixed;sketch=1;fillColor=#ffe6cc;strokeColor=#d79b00;" vertex="1" parent="1">
                    <mxGeometry x="235" y="550" width="40" height="40" as="geometry"/>
                </mxCell>
                <mxCell id="27" value="" style="edgeStyle=none;curved=1;sketch=1;html=1;" edge="1" parent="1" source="4" target="6">
                    <mxGeometry relative="1" as="geometry"/>
                </mxCell>
                <mxCell id="4" value="hey-cli init" style="rounded=1;whiteSpace=wrap;html=1;sketch=1;" vertex="1" parent="1">
                    <mxGeometry x="210" y="100" width="90" height="30" as="geometry"/>
                </mxCell>
                <mxCell id="5" value="脚手架启动阶段" style="rounded=1;whiteSpace=wrap;html=1;sketch=1;" vertex="1" parent="1">
                    <mxGeometry x="200" y="160" width="110" height="30" as="geometry"/>
                </mxCell>
                <mxCell id="28" value="" style="edgeStyle=none;curved=1;sketch=1;html=1;" edge="1" parent="1" source="6" target="11">
                    <mxGeometry relative="1" as="geometry"/>
                </mxCell>
                <mxCell id="6" value="检查版本号" style="rounded=1;whiteSpace=wrap;html=1;sketch=1;" vertex="1" parent="1">
                    <mxGeometry x="30" y="100" width="110" height="30" as="geometry"/>
                </mxCell>
                <mxCell id="7" value="commander&lt;br&gt;脚手架初始化" style="rounded=1;whiteSpace=wrap;html=1;sketch=1;" vertex="1" parent="1">
                    <mxGeometry x="200" y="220" width="110" height="30" as="geometry"/>
                </mxCell>
                <mxCell id="8" value="检查cli最新版本" style="rounded=1;whiteSpace=wrap;html=1;sketch=1;" vertex="1" parent="1">
                    <mxGeometry x="30" y="340" width="110" height="30" as="geometry"/>
                </mxCell>
                <mxCell id="31" value="" style="edgeStyle=none;curved=1;sketch=1;html=1;" edge="1" parent="1" source="9" target="8">
                    <mxGeometry relative="1" as="geometry"/>
                </mxCell>
                <mxCell id="9" value="检查环境变量" style="rounded=1;whiteSpace=wrap;html=1;sketch=1;" vertex="1" parent="1">
                    <mxGeometry x="30" y="280" width="110" height="30" as="geometry"/>
                </mxCell>
                <mxCell id="30" value="" style="edgeStyle=none;curved=1;sketch=1;html=1;" edge="1" parent="1" source="10" target="9">
                    <mxGeometry relative="1" as="geometry"/>
                </mxCell>
                <mxCell id="10" value="检查用户主目录" style="rounded=1;whiteSpace=wrap;html=1;sketch=1;" vertex="1" parent="1">
                    <mxGeometry x="30" y="220" width="110" height="30" as="geometry"/>
                </mxCell>
                <mxCell id="29" value="" style="edgeStyle=none;curved=1;sketch=1;html=1;" edge="1" parent="1" source="11" target="10">
                    <mxGeometry relative="1" as="geometry"/>
                </mxCell>
                <mxCell id="11" value="检查root账户启动" style="rounded=1;whiteSpace=wrap;html=1;sketch=1;" vertex="1" parent="1">
                    <mxGeometry x="30" y="160" width="110" height="30" as="geometry"/>
                </mxCell>
                <mxCell id="12" value="动态加载&lt;br&gt;initCommand" style="rounded=1;whiteSpace=wrap;html=1;sketch=1;" vertex="1" parent="1">
                    <mxGeometry x="200" y="280" width="110" height="30" as="geometry"/>
                </mxCell>
                <mxCell id="32" value="" style="edgeStyle=none;curved=1;sketch=1;html=1;" edge="1" parent="1" source="13" target="14">
                    <mxGeometry relative="1" as="geometry"/>
                </mxCell>
                <mxCell id="13" value="new InitCommand" style="rounded=1;whiteSpace=wrap;html=1;sketch=1;" vertex="1" parent="1">
                    <mxGeometry x="200" y="340" width="110" height="30" as="geometry"/>
                </mxCell>
                <mxCell id="33" value="" style="edgeStyle=none;curved=1;sketch=1;html=1;" edge="1" parent="1" source="14" target="15">
                    <mxGeometry relative="1" as="geometry"/>
                </mxCell>
                <mxCell id="14" value="Command constructor" style="rounded=1;whiteSpace=wrap;html=1;sketch=1;" vertex="1" parent="1">
                    <mxGeometry x="350" y="340" width="110" height="30" as="geometry"/>
                </mxCell>
                <mxCell id="34" value="" style="edgeStyle=none;curved=1;sketch=1;html=1;" edge="1" parent="1" source="15" target="17">
                    <mxGeometry relative="1" as="geometry"/>
                </mxCell>
                <mxCell id="36" value="" style="edgeStyle=none;curved=1;sketch=1;html=1;" edge="1" parent="1" source="15" target="18">
                    <mxGeometry relative="1" as="geometry"/>
                </mxCell>
                <mxCell id="15" value="命令的准备阶段" style="rounded=1;whiteSpace=wrap;html=1;sketch=1;" vertex="1" parent="1">
                    <mxGeometry x="350" y="410" width="110" height="30" as="geometry"/>
                </mxCell>
                <mxCell id="39" value="" style="edgeStyle=none;curved=1;sketch=1;html=1;" edge="1" parent="1" source="17" target="38">
                    <mxGeometry relative="1" as="geometry"/>
                </mxCell>
                <mxCell id="17" value="检查node版本" style="rounded=1;whiteSpace=wrap;html=1;sketch=1;" vertex="1" parent="1">
                    <mxGeometry x="490" y="410" width="110" height="30" as="geometry"/>
                </mxCell>
                <mxCell id="37" value="" style="edgeStyle=none;curved=1;sketch=1;html=1;" edge="1" parent="1" source="18" target="19">
                    <mxGeometry relative="1" as="geometry"/>
                </mxCell>
                <mxCell id="18" value="命令的执行阶段" style="rounded=1;whiteSpace=wrap;html=1;sketch=1;" vertex="1" parent="1">
                    <mxGeometry x="350" y="480" width="110" height="30" as="geometry"/>
                </mxCell>
                <mxCell id="40" value="" style="edgeStyle=none;curved=1;sketch=1;html=1;" edge="1" parent="1" source="19" target="3">
                    <mxGeometry relative="1" as="geometry"/>
                </mxCell>
                <mxCell id="19" value="init业务逻辑" style="rounded=1;whiteSpace=wrap;html=1;sketch=1;" vertex="1" parent="1">
                    <mxGeometry x="200" y="480" width="110" height="30" as="geometry"/>
                </mxCell>
                <mxCell id="20" value="" style="endArrow=classic;html=1;sketch=1;curved=1;exitX=0.5;exitY=1;exitDx=0;exitDy=0;entryX=0.5;entryY=0;entryDx=0;entryDy=0;" edge="1" parent="1" source="2" target="4">
                    <mxGeometry width="50" height="50" relative="1" as="geometry">
                        <mxPoint x="160" y="90" as="sourcePoint"/>
                        <mxPoint x="210" y="40" as="targetPoint"/>
                    </mxGeometry>
                </mxCell>
                <mxCell id="21" value="" style="endArrow=classic;html=1;sketch=1;curved=1;exitX=0.5;exitY=1;exitDx=0;exitDy=0;entryX=0.5;entryY=0;entryDx=0;entryDy=0;" edge="1" parent="1" source="4" target="5">
                    <mxGeometry width="50" height="50" relative="1" as="geometry">
                        <mxPoint x="265" y="80" as="sourcePoint"/>
                        <mxPoint x="265" y="110" as="targetPoint"/>
                    </mxGeometry>
                </mxCell>
                <mxCell id="22" value="" style="endArrow=classic;html=1;sketch=1;curved=1;exitX=0.5;exitY=1;exitDx=0;exitDy=0;entryX=0.5;entryY=0;entryDx=0;entryDy=0;" edge="1" parent="1" source="5" target="7">
                    <mxGeometry width="50" height="50" relative="1" as="geometry">
                        <mxPoint x="265" y="140" as="sourcePoint"/>
                        <mxPoint x="265" y="170" as="targetPoint"/>
                    </mxGeometry>
                </mxCell>
                <mxCell id="23" value="" style="endArrow=classic;html=1;sketch=1;curved=1;exitX=0.5;exitY=1;exitDx=0;exitDy=0;entryX=0.5;entryY=0;entryDx=0;entryDy=0;" edge="1" parent="1" source="7" target="12">
                    <mxGeometry width="50" height="50" relative="1" as="geometry">
                        <mxPoint x="265" y="200" as="sourcePoint"/>
                        <mxPoint x="265" y="230" as="targetPoint"/>
                    </mxGeometry>
                </mxCell>
                <mxCell id="24" value="" style="endArrow=classic;html=1;sketch=1;curved=1;exitX=0.5;exitY=1;exitDx=0;exitDy=0;entryX=0.5;entryY=0;entryDx=0;entryDy=0;" edge="1" parent="1" source="12" target="13">
                    <mxGeometry width="50" height="50" relative="1" as="geometry">
                        <mxPoint x="265" y="260" as="sourcePoint"/>
                        <mxPoint x="265" y="290" as="targetPoint"/>
                    </mxGeometry>
                </mxCell>
                <mxCell id="38" value="参数初始化" style="rounded=1;whiteSpace=wrap;html=1;sketch=1;" vertex="1" parent="1">
                    <mxGeometry x="490" y="480" width="110" height="30" as="geometry"/>
                </mxCell>
            </root>
        </mxGraphModel>
    </diagram>
</mxfile>